<?xml version="1.0" encoding="UTF-8"?>
<svg xmlns="http://www.w3.org/2000/svg" xmlns:xlink="http://www.w3.org/1999/xlink" width="375pt" height="374.999991pt" viewBox="0 0 375 374.999991" version="1.2">
<g id="surface1">
<path style=" stroke:none;fill-rule:nonzero;fill:rgb(98.039246%,93.728638%,87.059021%);fill-opacity:1;" d="M 356.308594 219.855469 C 355.875 222.53125 355.378906 225.191406 354.816406 227.84375 C 354.253906 230.496094 353.625 233.132812 352.933594 235.75 C 352.238281 238.371094 351.484375 240.972656 350.664062 243.554688 C 349.84375 246.140625 348.957031 248.699219 348.011719 251.242188 C 347.066406 253.78125 346.058594 256.296875 344.988281 258.785156 C 343.917969 261.277344 342.789062 263.738281 341.597656 266.171875 C 340.410156 268.609375 339.160156 271.011719 337.851562 273.386719 C 336.542969 275.757812 335.175781 278.097656 333.753906 280.40625 C 332.328125 282.710938 330.851562 284.984375 329.316406 287.214844 C 327.78125 289.449219 326.191406 291.644531 324.550781 293.800781 C 322.90625 295.957031 321.210938 298.070312 319.464844 300.144531 C 317.71875 302.214844 315.921875 304.246094 314.078125 306.230469 C 312.230469 308.214844 310.339844 310.152344 308.398438 312.042969 C 306.457031 313.933594 304.46875 315.777344 302.4375 317.570312 C 300.40625 319.363281 298.332031 321.109375 296.214844 322.800781 C 294.097656 324.492188 291.941406 326.132812 289.742188 327.71875 C 287.542969 329.304688 285.308594 330.835938 283.035156 332.3125 C 280.765625 333.789062 278.457031 335.207031 276.113281 336.570312 C 273.769531 337.933594 271.398438 339.238281 268.988281 340.484375 C 266.582031 341.730469 264.148438 342.917969 261.683594 344.046875 C 259.21875 345.171875 256.726562 346.238281 254.210938 347.242188 C 251.691406 348.25 249.152344 349.191406 246.589844 350.070312 C 244.027344 350.949219 241.441406 351.765625 238.839844 352.519531 C 236.234375 353.273438 233.613281 353.960938 230.976562 354.585938 C 228.339844 355.210938 225.6875 355.769531 223.023438 356.265625 C 220.359375 356.757812 217.683594 357.1875 214.996094 357.550781 C 212.3125 357.914062 209.617188 358.210938 206.917969 358.441406 C 204.21875 358.671875 201.511719 358.835938 198.804688 358.933594 C 196.097656 359.035156 193.386719 359.066406 190.675781 359.03125 C 187.96875 358.996094 185.257812 358.894531 182.554688 358.726562 C 179.847656 358.558594 177.148438 358.324219 174.457031 358.023438 C 171.761719 357.722656 169.078125 357.355469 166.402344 356.921875 C 163.726562 356.492188 161.0625 355.992188 158.414062 355.429688 C 155.761719 354.867188 153.125 354.238281 150.503906 353.546875 C 147.886719 352.855469 145.285156 352.097656 142.699219 351.277344 C 140.117188 350.457031 137.554688 349.574219 135.015625 348.628906 C 132.476562 347.683594 129.960938 346.675781 127.46875 345.605469 C 124.980469 344.539062 122.515625 343.40625 120.082031 342.21875 C 117.648438 341.027344 115.242188 339.777344 112.871094 338.46875 C 110.496094 337.160156 108.15625 335.796875 105.847656 334.371094 C 103.542969 332.949219 101.273438 331.46875 99.039062 329.933594 C 96.804688 328.402344 94.609375 326.8125 92.453125 325.167969 C 90.296875 323.527344 88.183594 321.832031 86.109375 320.085938 C 84.039062 318.339844 82.007812 316.542969 80.023438 314.699219 C 78.039062 312.851562 76.101562 310.960938 74.210938 309.019531 C 72.320312 307.078125 70.476562 305.089844 68.683594 303.058594 C 66.886719 301.027344 65.144531 298.953125 63.453125 296.835938 C 61.761719 294.71875 60.121094 292.5625 58.535156 290.367188 C 56.949219 288.167969 55.417969 285.933594 53.941406 283.660156 C 52.464844 281.386719 51.042969 279.078125 49.679688 276.738281 C 48.316406 274.394531 47.011719 272.019531 45.765625 269.613281 C 44.519531 267.207031 43.332031 264.773438 42.203125 262.308594 C 41.078125 259.84375 40.011719 257.351562 39.003906 254.835938 C 38 252.316406 37.058594 249.777344 36.175781 247.214844 C 35.296875 244.648438 34.480469 242.066406 33.726562 239.464844 C 32.972656 236.859375 32.285156 234.238281 31.660156 231.601562 C 31.035156 228.964844 30.476562 226.3125 29.980469 223.648438 C 29.488281 220.984375 29.058594 218.308594 28.695312 215.625 C 28.332031 212.9375 28.035156 210.246094 27.804688 207.542969 C 27.574219 204.84375 27.40625 202.140625 27.308594 199.429688 C 27.210938 196.722656 27.179688 194.011719 27.214844 191.300781 C 27.25 188.59375 27.351562 185.886719 27.519531 183.179688 C 27.6875 180.476562 27.917969 177.777344 28.21875 175.082031 C 28.519531 172.386719 28.886719 169.703125 29.320312 167.027344 C 29.75 164.351562 30.246094 161.6875 30.8125 159.039062 C 31.375 156.386719 32 153.75 32.691406 151.128906 C 33.386719 148.511719 34.140625 145.910156 34.960938 143.324219 C 35.78125 140.742188 36.664062 138.179688 37.609375 135.640625 C 38.554688 133.101562 39.5625 130.585938 40.632812 128.09375 C 41.703125 125.605469 42.832031 123.140625 44.019531 120.707031 C 45.210938 118.269531 46.460938 115.867188 47.769531 113.492188 C 49.078125 111.121094 50.441406 108.78125 51.867188 106.472656 C 53.289062 104.167969 54.765625 101.894531 56.300781 99.660156 C 57.835938 97.425781 59.425781 95.234375 61.066406 93.078125 C 62.707031 90.921875 64.402344 88.804688 66.148438 86.734375 C 67.894531 84.660156 69.691406 82.632812 71.535156 80.648438 C 73.382812 78.660156 75.277344 76.722656 77.214844 74.832031 C 79.15625 72.941406 81.144531 71.097656 83.175781 69.304688 C 85.207031 67.507812 87.28125 65.765625 89.398438 64.074219 C 91.515625 62.378906 93.671875 60.742188 95.867188 59.152344 C 98.066406 57.566406 100.300781 56.035156 102.574219 54.558594 C 104.847656 53.082031 107.152344 51.664062 109.496094 50.296875 C 111.839844 48.933594 114.210938 47.628906 116.617188 46.382812 C 119.023438 45.136719 121.460938 43.949219 123.925781 42.820312 C 126.390625 41.695312 128.878906 40.628906 131.398438 39.621094 C 133.914062 38.617188 136.453125 37.675781 139.019531 36.792969 C 141.582031 35.914062 144.164062 35.097656 146.769531 34.34375 C 149.371094 33.589844 151.992188 32.902344 154.628906 32.277344 C 157.265625 31.652344 159.917969 31.089844 162.582031 30.597656 C 165.246094 30.101562 167.921875 29.671875 170.609375 29.308594 C 173.292969 28.945312 175.988281 28.648438 178.6875 28.417969 C 181.386719 28.1875 184.09375 28.019531 186.800781 27.921875 C 189.507812 27.824219 192.21875 27.792969 194.929688 27.828125 C 197.640625 27.863281 200.347656 27.960938 203.050781 28.128906 C 205.757812 28.296875 208.457031 28.53125 211.148438 28.832031 C 213.84375 29.132812 216.527344 29.496094 219.203125 29.929688 C 221.882812 30.351562 224.550781 30.839844 227.207031 31.394531 C 229.863281 31.949219 232.503906 32.570312 235.132812 33.253906 C 237.757812 33.9375 240.363281 34.6875 242.953125 35.5 C 245.542969 36.3125 248.109375 37.191406 250.65625 38.128906 C 253.199219 39.070312 255.722656 40.070312 258.21875 41.136719 C 260.714844 42.199219 263.179688 43.324219 265.621094 44.511719 C 268.0625 45.695312 270.472656 46.941406 272.851562 48.246094 C 275.230469 49.550781 277.578125 50.914062 279.886719 52.335938 C 282.199219 53.757812 284.476562 55.234375 286.714844 56.765625 C 288.953125 58.296875 291.152344 59.886719 293.316406 61.527344 C 295.476562 63.167969 297.59375 64.863281 299.671875 66.605469 C 301.75 68.351562 303.78125 70.148438 305.769531 71.996094 C 307.757812 73.839844 309.699219 75.734375 311.597656 77.675781 C 313.492188 79.621094 315.335938 81.605469 317.136719 83.640625 C 318.933594 85.671875 320.679688 87.75 322.371094 89.867188 C 324.066406 91.988281 325.710938 94.148438 327.296875 96.347656 C 328.886719 98.546875 330.417969 100.785156 331.898438 103.0625 C 333.375 105.335938 334.796875 107.648438 336.160156 109.992188 C 337.523438 112.339844 338.828125 114.71875 340.074219 117.128906 C 341.320312 119.539062 342.507812 121.976562 343.632812 124.445312 C 344.761719 126.914062 345.824219 129.410156 346.828125 131.929688 C 347.832031 134.453125 348.773438 136.996094 349.648438 139.5625 C 350.527344 142.132812 351.339844 144.71875 352.089844 147.328125 C 352.839844 149.933594 353.527344 152.558594 354.144531 155.203125 C 354.765625 157.84375 355.320312 160.5 355.8125 163.167969 C 356.300781 165.835938 356.722656 168.515625 357.082031 171.207031 C 357.4375 173.894531 357.730469 176.59375 357.953125 179.296875 C 358.179688 182 358.335938 184.707031 358.425781 187.421875 C 358.515625 190.132812 358.542969 192.84375 358.5 195.558594 C 358.457031 198.273438 358.34375 200.980469 358.167969 203.691406 C 357.992188 206.398438 357.75 209.097656 357.4375 211.792969 C 357.128906 214.492188 356.75 217.175781 356.308594 219.855469 Z M 356.308594 219.855469 "/>
<path style=" stroke:none;fill-rule:nonzero;fill:rgb(100%,96.859741%,94.119263%);fill-opacity:1;" d="M 303.902344 316.265625 C 302.023438 317.964844 300.101562 319.621094 298.144531 321.234375 C 296.1875 322.847656 294.195312 324.414062 292.164062 325.933594 C 290.132812 327.457031 288.070312 328.929688 285.972656 330.355469 C 283.875 331.78125 281.746094 333.160156 279.585938 334.488281 C 277.425781 335.816406 275.238281 337.09375 273.015625 338.320312 C 270.796875 339.546875 268.550781 340.722656 266.277344 341.847656 C 264.003906 342.972656 261.707031 344.042969 259.382812 345.0625 C 257.0625 346.082031 254.71875 347.046875 252.351562 347.957031 C 249.984375 348.871094 247.597656 349.726562 245.191406 350.527344 C 242.785156 351.328125 240.359375 352.074219 237.921875 352.765625 C 235.480469 353.453125 233.023438 354.089844 230.554688 354.667969 C 228.085938 355.242188 225.605469 355.765625 223.109375 356.226562 C 220.617188 356.691406 218.113281 357.097656 215.601562 357.445312 C 213.089844 357.792969 210.570312 358.082031 208.046875 358.316406 C 205.519531 358.550781 202.992188 358.722656 200.457031 358.839844 C 197.925781 358.957031 195.390625 359.015625 192.851562 359.015625 C 190.316406 359.015625 187.78125 358.957031 185.25 358.839844 C 182.714844 358.722656 180.183594 358.550781 177.660156 358.316406 C 175.132812 358.082031 172.617188 357.792969 170.101562 357.445312 C 167.589844 357.097656 165.089844 356.691406 162.59375 356.226562 C 160.101562 355.765625 157.621094 355.242188 155.148438 354.667969 C 152.679688 354.089844 150.226562 353.453125 147.785156 352.765625 C 145.34375 352.074219 142.921875 351.328125 140.515625 350.527344 C 138.109375 349.726562 135.722656 348.871094 133.355469 347.957031 C 130.988281 347.046875 128.644531 346.082031 126.320312 345.0625 C 124 344.042969 121.699219 342.972656 119.425781 341.847656 C 117.152344 340.722656 114.90625 339.546875 112.6875 338.320312 C 110.46875 337.09375 108.28125 335.816406 106.117188 334.488281 C 103.957031 333.160156 101.828125 331.78125 99.730469 330.355469 C 97.636719 328.929688 95.570312 327.457031 93.542969 325.933594 C 91.511719 324.414062 89.519531 322.847656 87.5625 321.234375 C 85.601562 319.621094 83.683594 317.964844 81.800781 316.265625 L 86.355469 311.710938 C 86.964844 311.105469 87.597656 310.53125 88.253906 309.980469 C 88.914062 309.429688 89.59375 308.910156 90.296875 308.421875 C 91 307.929688 91.722656 307.472656 92.464844 307.046875 C 93.207031 306.617188 93.96875 306.222656 94.746094 305.863281 C 95.523438 305.5 96.3125 305.175781 97.121094 304.882812 C 97.925781 304.589844 98.742188 304.332031 99.570312 304.109375 C 100.398438 303.890625 101.234375 303.703125 102.078125 303.554688 C 102.921875 303.40625 103.769531 303.296875 104.625 303.21875 C 105.480469 303.144531 106.335938 303.109375 107.191406 303.105469 C 108.046875 303.105469 108.902344 303.144531 109.757812 303.214844 C 110.613281 303.289062 111.460938 303.402344 112.304688 303.550781 C 113.148438 303.695312 113.984375 303.878906 114.8125 304.101562 C 115.640625 304.320312 116.457031 304.578125 117.265625 304.867188 C 118.070312 305.160156 118.863281 305.484375 119.640625 305.847656 C 120.417969 306.207031 121.179688 306.597656 121.921875 307.027344 C 122.664062 307.453125 123.390625 307.910156 124.09375 308.398438 C 131.496094 313.335938 139.34375 317.421875 147.632812 320.664062 C 155.917969 323.90625 164.457031 326.226562 173.246094 327.621094 C 179.722656 328.742188 186.25 329.351562 192.824219 329.457031 C 198.960938 329.472656 205.066406 329.035156 211.136719 328.144531 C 217.207031 327.253906 223.179688 325.917969 229.054688 324.140625 C 234.925781 322.359375 240.636719 320.15625 246.183594 317.53125 C 251.726562 314.902344 257.050781 311.878906 262.144531 308.457031 C 262.847656 307.984375 263.570312 307.542969 264.3125 307.132812 C 265.054688 306.722656 265.816406 306.34375 266.589844 305.996094 C 267.363281 305.652344 268.152344 305.339844 268.953125 305.0625 C 269.753906 304.785156 270.566406 304.542969 271.390625 304.332031 C 272.210938 304.125 273.039062 303.953125 273.878906 303.816406 C 274.714844 303.679688 275.558594 303.578125 276.402344 303.515625 C 277.25 303.449219 278.09375 303.421875 278.945312 303.433594 C 279.792969 303.441406 280.636719 303.484375 281.480469 303.566406 C 282.328125 303.648438 283.164062 303.765625 284 303.917969 C 284.835938 304.074219 285.660156 304.261719 286.476562 304.488281 C 287.296875 304.710938 288.101562 304.972656 288.898438 305.265625 C 289.695312 305.558594 290.476562 305.886719 291.242188 306.25 C 292.011719 306.609375 292.761719 307.003906 293.492188 307.429688 C 294.226562 307.855469 294.941406 308.3125 295.636719 308.800781 C 296.328125 309.289062 297 309.804688 297.652344 310.351562 C 298.300781 310.894531 298.925781 311.46875 299.527344 312.066406 Z M 303.902344 316.265625 "/>
<path style=" stroke:none;fill-rule:nonzero;fill:rgb(93.728638%,84.709167%,74.508667%);fill-opacity:1;" d="M 59.859375 289.53125 C 64.433594 274.75 69.949219 260.328125 76.40625 246.265625 C 82.859375 232.203125 90.203125 218.621094 98.429688 205.515625 C 106.65625 192.410156 115.699219 179.894531 125.558594 167.96875 C 135.417969 156.046875 146.011719 144.8125 157.335938 134.265625 C 153.015625 130.835938 178.214844 115.042969 173.71875 111.613281 C 156.683594 98.777344 115.929688 70.328125 115.929688 70.328125 C 129.644531 73.949219 142.953125 78.695312 155.863281 84.574219 C 168.769531 90.453125 181.089844 97.375 192.824219 105.34375 C 204.558594 97.375 216.878906 90.453125 229.785156 84.574219 C 242.691406 78.695312 256.003906 73.949219 269.714844 70.328125 C 269.714844 70.328125 236.121094 100.316406 219.441406 112.796875 C 214.945312 116.167969 232.75 130.539062 228.429688 133.972656 C 239.722656 144.5 250.28125 155.714844 260.113281 167.621094 C 269.941406 179.527344 278.957031 192.019531 287.160156 205.097656 C 295.359375 218.175781 302.679688 231.734375 309.117188 245.765625 C 315.550781 259.796875 321.050781 274.191406 325.609375 288.9375 L 312.304688 305.796875 C 293.375 271.609375 259.363281 226.242188 196.90625 167.625 C 196.632812 167.367188 196.335938 167.132812 196.019531 166.929688 C 195.703125 166.726562 195.371094 166.554688 195.019531 166.417969 C 194.671875 166.277344 194.3125 166.171875 193.941406 166.097656 C 193.574219 166.027344 193.199219 165.992188 192.824219 165.992188 C 192.445312 165.992188 192.074219 166.027344 191.703125 166.097656 C 191.335938 166.171875 190.976562 166.277344 190.625 166.417969 C 190.277344 166.554688 189.941406 166.726562 189.625 166.929688 C 189.308594 167.132812 189.015625 167.367188 188.742188 167.625 C 125.632812 226.773438 91.738281 272.851562 72.8125 306.859375 Z M 59.859375 289.53125 "/>
<path style=" stroke:none;fill-rule:nonzero;fill:rgb(44.709778%,79.219055%,68.629456%);fill-opacity:1;" d="M 53.941406 283.617188 C 67.488281 241.324219 98.1875 166.324219 157.335938 110.605469 C 135.863281 93.417969 113.269531 77.863281 89.550781 63.9375 L 115.929688 46.667969 C 129.644531 50.289062 142.953125 55.039062 155.863281 60.914062 C 168.769531 66.792969 181.089844 73.714844 192.824219 81.683594 C 204.558594 73.714844 216.878906 66.792969 229.785156 60.914062 C 242.691406 55.039062 256.003906 50.289062 269.714844 46.667969 L 295.269531 64.414062 C 271.851562 78.21875 249.53125 93.617188 228.3125 110.605469 C 287.460938 166.382812 317.804688 240.734375 331.40625 283.320312 L 318.21875 299.882812 C 301.484375 270.347656 282.609375 242.253906 261.589844 215.601562 C 240.566406 188.949219 217.644531 164.042969 192.824219 140.890625 C 167.859375 164.183594 144.824219 189.25 123.710938 216.082031 C 102.601562 242.914062 83.664062 271.203125 66.898438 300.945312 Z M 53.941406 283.617188 "/>
<path style=" stroke:none;fill-rule:nonzero;fill:rgb(55.288696%,42.349243%,62.348938%);fill-opacity:1;" d="M 192.351562 329.457031 C 191.960938 329.457031 191.578125 329.417969 191.195312 329.34375 C 190.816406 329.265625 190.445312 329.152344 190.085938 329.003906 C 189.726562 328.855469 189.386719 328.675781 189.0625 328.457031 C 188.742188 328.242188 188.441406 327.996094 188.167969 327.722656 C 187.894531 327.449219 187.648438 327.148438 187.433594 326.828125 C 187.214844 326.503906 187.035156 326.164062 186.886719 325.804688 C 186.738281 325.445312 186.625 325.074219 186.550781 324.695312 C 186.472656 324.3125 186.433594 323.929688 186.433594 323.539062 L 186.433594 311.710938 C 186.433594 311.324219 186.472656 310.9375 186.550781 310.558594 C 186.625 310.175781 186.738281 309.804688 186.886719 309.449219 C 187.035156 309.089844 187.214844 308.75 187.433594 308.425781 C 187.648438 308.101562 187.894531 307.804688 188.167969 307.527344 C 188.441406 307.253906 188.742188 307.007812 189.0625 306.792969 C 189.386719 306.578125 189.726562 306.394531 190.085938 306.246094 C 190.445312 306.097656 190.816406 305.984375 191.195312 305.910156 C 191.578125 305.835938 191.960938 305.796875 192.351562 305.796875 C 192.738281 305.796875 193.125 305.835938 193.503906 305.910156 C 193.886719 305.984375 194.253906 306.097656 194.613281 306.246094 C 194.972656 306.394531 195.3125 306.578125 195.636719 306.792969 C 195.960938 307.007812 196.257812 307.253906 196.53125 307.527344 C 196.808594 307.804688 197.050781 308.101562 197.269531 308.425781 C 197.484375 308.75 197.667969 309.089844 197.816406 309.449219 C 197.964844 309.804688 198.074219 310.175781 198.152344 310.558594 C 198.226562 310.9375 198.265625 311.324219 198.265625 311.710938 L 198.265625 323.539062 C 198.265625 323.929688 198.226562 324.3125 198.152344 324.695312 C 198.074219 325.074219 197.964844 325.445312 197.816406 325.804688 C 197.667969 326.164062 197.484375 326.503906 197.269531 326.828125 C 197.050781 327.148438 196.808594 327.449219 196.53125 327.722656 C 196.257812 327.996094 195.960938 328.242188 195.636719 328.457031 C 195.3125 328.675781 194.972656 328.855469 194.613281 329.003906 C 194.253906 329.152344 193.886719 329.265625 193.503906 329.34375 C 193.125 329.417969 192.738281 329.457031 192.351562 329.457031 Z M 225.296875 325.316406 C 224.625 325.335938 223.96875 325.246094 223.328125 325.042969 C 222.6875 324.839844 222.097656 324.539062 221.558594 324.136719 C 221.023438 323.730469 220.566406 323.25 220.191406 322.691406 C 219.820312 322.132812 219.546875 321.53125 219.382812 320.878906 L 216.484375 309.34375 C 216.386719 308.957031 216.332031 308.5625 216.3125 308.164062 C 216.296875 307.765625 216.316406 307.367188 216.378906 306.972656 C 216.4375 306.578125 216.539062 306.191406 216.675781 305.816406 C 216.8125 305.4375 216.984375 305.082031 217.191406 304.738281 C 217.398438 304.398438 217.636719 304.078125 217.90625 303.785156 C 218.175781 303.488281 218.472656 303.222656 218.796875 302.984375 C 219.117188 302.75 219.460938 302.546875 219.820312 302.378906 C 220.183594 302.207031 220.558594 302.078125 220.949219 301.980469 C 221.335938 301.886719 221.730469 301.828125 222.128906 301.8125 C 222.53125 301.792969 222.925781 301.816406 223.320312 301.878906 C 223.71875 301.9375 224.101562 302.035156 224.480469 302.171875 C 224.855469 302.308594 225.214844 302.480469 225.554688 302.6875 C 225.898438 302.898438 226.214844 303.136719 226.511719 303.40625 C 226.804688 303.675781 227.070312 303.972656 227.308594 304.292969 C 227.542969 304.617188 227.746094 304.957031 227.914062 305.320312 C 228.085938 305.683594 228.21875 306.058594 228.3125 306.445312 L 231.210938 317.921875 C 231.308594 318.296875 231.367188 318.679688 231.390625 319.070312 C 231.414062 319.457031 231.398438 319.84375 231.34375 320.230469 C 231.289062 320.617188 231.195312 320.992188 231.070312 321.359375 C 230.941406 321.726562 230.777344 322.078125 230.578125 322.414062 C 230.382812 322.75 230.152344 323.0625 229.894531 323.351562 C 229.632812 323.640625 229.347656 323.902344 229.039062 324.136719 C 228.726562 324.371094 228.394531 324.574219 228.042969 324.742188 C 227.691406 324.910156 227.328125 325.042969 226.953125 325.136719 C 226.410156 325.277344 225.855469 325.335938 225.296875 325.316406 Z M 129.003906 311.355469 C 128.480469 311.355469 127.96875 311.289062 127.464844 311.152344 C 126.960938 311.015625 126.480469 310.816406 126.03125 310.554688 C 125.578125 310.292969 125.167969 309.976562 124.800781 309.605469 C 124.433594 309.234375 124.121094 308.824219 123.863281 308.367188 C 123.605469 307.914062 123.410156 307.4375 123.277344 306.929688 C 123.148438 306.425781 123.085938 305.910156 123.089844 305.390625 C 123.09375 304.867188 123.164062 304.355469 123.304688 303.851562 C 123.445312 303.351562 123.648438 302.875 123.914062 302.425781 L 129.832031 292.25 C 130 291.875 130.207031 291.519531 130.453125 291.1875 C 130.699219 290.851562 130.976562 290.546875 131.285156 290.273438 C 131.59375 289.996094 131.925781 289.757812 132.285156 289.550781 C 132.644531 289.347656 133.023438 289.179688 133.417969 289.054688 C 133.8125 288.929688 134.214844 288.84375 134.625 288.800781 C 135.039062 288.761719 135.449219 288.761719 135.859375 288.808594 C 136.273438 288.851562 136.675781 288.9375 137.066406 289.066406 C 137.460938 289.199219 137.835938 289.367188 138.191406 289.574219 C 138.550781 289.78125 138.882812 290.023438 139.191406 290.300781 C 139.496094 290.582031 139.769531 290.886719 140.015625 291.222656 C 140.257812 291.558594 140.460938 291.914062 140.628906 292.292969 C 140.796875 292.671875 140.921875 293.0625 141.007812 293.46875 C 141.09375 293.871094 141.136719 294.28125 141.136719 294.695312 C 141.132812 295.109375 141.089844 295.519531 141.003906 295.921875 C 140.917969 296.328125 140.789062 296.71875 140.621094 297.097656 C 140.453125 297.476562 140.246094 297.832031 140.003906 298.167969 L 134.089844 308.339844 C 133.835938 308.792969 133.527344 309.203125 133.164062 309.574219 C 132.800781 309.945312 132.394531 310.265625 131.949219 310.53125 C 131.503906 310.792969 131.03125 310.996094 130.53125 311.136719 C 130.03125 311.277344 129.519531 311.351562 129.003906 311.355469 Z M 256.171875 313.011719 C 255.648438 313.011719 255.132812 312.941406 254.625 312.804688 C 254.121094 312.667969 253.640625 312.464844 253.191406 312.199219 C 252.738281 311.933594 252.328125 311.617188 251.960938 311.242188 C 251.59375 310.867188 251.28125 310.453125 251.023438 309.996094 L 245.109375 299.703125 C 244.917969 299.367188 244.757812 299.011719 244.632812 298.644531 C 244.507812 298.273438 244.421875 297.894531 244.371094 297.511719 C 244.320312 297.125 244.308594 296.734375 244.335938 296.347656 C 244.359375 295.957031 244.425781 295.574219 244.527344 295.199219 C 244.628906 294.824219 244.765625 294.460938 244.9375 294.109375 C 245.113281 293.761719 245.316406 293.433594 245.554688 293.125 C 245.792969 292.816406 246.058594 292.53125 246.351562 292.277344 C 246.644531 292.019531 246.960938 291.796875 247.300781 291.601562 C 247.636719 291.40625 247.992188 291.246094 248.359375 291.121094 C 248.730469 291 249.105469 290.910156 249.492188 290.859375 C 249.878906 290.8125 250.265625 290.800781 250.65625 290.824219 C 251.046875 290.851562 251.425781 290.914062 251.804688 291.015625 C 252.179688 291.117188 252.542969 291.253906 252.890625 291.429688 C 253.242188 291.601562 253.570312 291.808594 253.878906 292.046875 C 254.1875 292.28125 254.46875 292.546875 254.726562 292.84375 C 254.984375 293.136719 255.207031 293.453125 255.402344 293.789062 L 261.316406 304.082031 C 261.441406 304.304688 261.554688 304.535156 261.648438 304.773438 C 261.746094 305.011719 261.824219 305.257812 261.890625 305.503906 C 261.953125 305.753906 262 306.003906 262.03125 306.261719 C 262.0625 306.515625 262.078125 306.769531 262.074219 307.027344 C 262.074219 307.285156 262.054688 307.539062 262.019531 307.792969 C 261.984375 308.050781 261.933594 308.300781 261.863281 308.546875 C 261.796875 308.796875 261.710938 309.039062 261.613281 309.273438 C 261.511719 309.511719 261.398438 309.738281 261.269531 309.960938 C 261.140625 310.183594 260.996094 310.394531 260.839844 310.597656 C 260.679688 310.800781 260.511719 310.996094 260.328125 311.175781 C 260.148438 311.355469 259.953125 311.523438 259.75 311.679688 C 259.546875 311.835938 259.332031 311.976562 259.109375 312.105469 C 258.886719 312.234375 258.65625 312.347656 258.421875 312.445312 C 258.183594 312.542969 257.941406 312.625 257.691406 312.691406 C 257.445312 312.757812 257.191406 312.808594 256.9375 312.84375 C 256.683594 312.875 256.429688 312.894531 256.171875 312.894531 Z M 159.523438 324.429688 C 158.992188 324.5 158.457031 324.5 157.925781 324.429688 C 157.554688 324.324219 157.195312 324.179688 156.851562 324.003906 C 156.507812 323.828125 156.183594 323.621094 155.878906 323.382812 C 155.574219 323.140625 155.296875 322.875 155.046875 322.582031 C 154.792969 322.285156 154.574219 321.96875 154.382812 321.632812 C 154.195312 321.296875 154.039062 320.941406 153.921875 320.574219 C 153.800781 320.207031 153.71875 319.832031 153.671875 319.445312 C 153.625 319.0625 153.617188 318.675781 153.644531 318.292969 C 153.675781 317.90625 153.742188 317.527344 153.84375 317.152344 L 156.980469 305.796875 C 157.085938 305.421875 157.222656 305.058594 157.398438 304.714844 C 157.578125 304.367188 157.785156 304.039062 158.023438 303.734375 C 158.265625 303.425781 158.53125 303.144531 158.828125 302.894531 C 159.125 302.640625 159.441406 302.417969 159.78125 302.226562 C 160.121094 302.035156 160.472656 301.878906 160.84375 301.757812 C 161.214844 301.636719 161.59375 301.554688 161.976562 301.507812 C 162.363281 301.460938 162.753906 301.453125 163.140625 301.480469 C 163.527344 301.511719 163.910156 301.578125 164.285156 301.683594 C 164.660156 301.789062 165.019531 301.929688 165.367188 302.105469 C 165.714844 302.28125 166.042969 302.488281 166.347656 302.730469 C 166.65625 302.96875 166.933594 303.238281 167.1875 303.53125 C 167.441406 303.828125 167.664062 304.144531 167.855469 304.484375 C 168.042969 304.824219 168.199219 305.179688 168.320312 305.550781 C 168.441406 305.917969 168.527344 306.296875 168.574219 306.683594 C 168.621094 307.070312 168.628906 307.457031 168.597656 307.847656 C 168.566406 308.234375 168.5 308.617188 168.394531 308.992188 L 165.199219 320.347656 C 165.007812 320.945312 164.722656 321.496094 164.351562 322.003906 C 163.980469 322.511719 163.539062 322.949219 163.03125 323.316406 C 162.519531 323.683594 161.964844 323.960938 161.363281 324.152344 C 160.765625 324.34375 160.152344 324.433594 159.523438 324.429688 Z M 159.523438 324.429688 "/>
<path style=" stroke:none;fill-rule:nonzero;fill:rgb(55.288696%,42.349243%,62.348938%);fill-opacity:1;" d="M 331.882812 92.863281 C 330.386719 90.792969 328.84375 88.753906 327.257812 86.753906 C 325.671875 84.75 324.042969 82.785156 322.371094 80.855469 C 320.695312 78.925781 318.980469 77.035156 317.222656 75.183594 C 315.464844 73.332031 313.664062 71.519531 311.828125 69.746094 C 309.988281 67.972656 308.109375 66.242188 306.191406 64.554688 C 304.277344 62.867188 302.324219 61.222656 300.332031 59.621094 C 298.34375 58.019531 296.320312 56.460938 294.257812 54.953125 C 292.199219 53.441406 290.109375 51.976562 287.984375 50.558594 C 285.859375 49.140625 283.703125 47.773438 281.515625 46.453125 C 279.332031 45.132812 277.117188 43.859375 274.875 42.636719 C 272.632812 41.414062 270.363281 40.242188 268.066406 39.125 C 265.773438 38.003906 263.453125 36.933594 261.109375 35.917969 C 258.765625 34.898438 256.402344 33.933594 254.015625 33.023438 C 251.628906 32.113281 249.226562 31.253906 246.800781 30.449219 C 244.378906 29.644531 241.9375 28.894531 239.476562 28.199219 C 237.019531 27.507812 234.546875 26.867188 232.0625 26.28125 C 229.574219 25.695312 227.078125 25.167969 224.566406 24.695312 C 222.058594 24.222656 219.539062 23.804688 217.011719 23.445312 C 214.480469 23.085938 211.945312 22.78125 209.402344 22.53125 C 206.863281 22.285156 204.316406 22.09375 201.765625 21.960938 C 199.214844 21.828125 196.660156 21.753906 194.109375 21.734375 C 191.554688 21.714844 189 21.75 186.449219 21.84375 C 183.894531 21.941406 181.347656 22.089844 178.800781 22.300781 C 176.253906 22.507812 173.714844 22.773438 171.183594 23.09375 C 168.648438 23.417969 166.121094 23.796875 163.605469 24.230469 C 161.089844 24.664062 158.582031 25.15625 156.089844 25.703125 C 153.59375 26.25 151.113281 26.851562 148.644531 27.507812 C 146.175781 28.167969 143.722656 28.878906 141.289062 29.644531 C 138.851562 30.414062 136.433594 31.234375 134.035156 32.109375 C 131.632812 32.984375 129.253906 33.910156 126.898438 34.894531 C 124.539062 35.875 122.203125 36.90625 119.890625 37.992188 C 117.578125 39.078125 115.292969 40.214844 113.03125 41.402344 C 105.808594 45.234375 98.886719 49.550781 92.269531 54.355469 C 90.082031 55.953125 87.953125 57.550781 85.882812 59.207031 C 83.75 60.90625 81.660156 62.652344 79.613281 64.449219 C 77.5625 66.246094 75.558594 68.089844 73.597656 69.984375 C 71.636719 71.875 69.722656 73.8125 67.855469 75.796875 C 65.984375 77.78125 64.167969 79.808594 62.394531 81.878906 C 60.621094 83.949219 58.902344 86.0625 57.230469 88.214844 C 55.558594 90.367188 53.941406 92.558594 52.375 94.789062 C 50.808594 97.015625 49.292969 99.28125 47.835938 101.585938 C 46.375 103.886719 44.972656 106.222656 43.625 108.589844 C 42.277344 110.960938 40.988281 113.359375 39.753906 115.789062 C 38.523438 118.21875 37.347656 120.675781 36.230469 123.164062 C 35.117188 125.648438 34.058594 128.160156 33.0625 130.699219 C 32.066406 133.234375 31.132812 135.792969 30.257812 138.375 C 29.382812 140.953125 28.570312 143.554688 27.820312 146.175781 C 27.070312 148.796875 26.382812 151.429688 25.757812 154.082031 C 25.136719 156.734375 24.574219 159.402344 24.074219 162.082031 C 23.578125 164.761719 23.144531 167.449219 22.777344 170.148438 C 22.40625 172.851562 22.101562 175.558594 21.859375 178.273438 C 21.621094 180.988281 21.445312 183.707031 21.335938 186.429688 C 21.222656 189.152344 21.179688 191.875 21.195312 194.601562 C 21.214844 197.324219 21.300781 200.046875 21.449219 202.769531 C 21.597656 205.488281 21.8125 208.207031 22.089844 210.917969 C 22.367188 213.628906 22.710938 216.332031 23.117188 219.023438 C 23.523438 221.71875 23.996094 224.402344 24.53125 227.074219 C 25.066406 229.746094 25.664062 232.40625 26.324219 235.046875 C 26.988281 237.691406 27.710938 240.316406 28.5 242.925781 C 29.285156 245.535156 30.132812 248.125 31.042969 250.695312 C 31.953125 253.261719 32.925781 255.808594 33.957031 258.332031 C 34.988281 260.851562 36.078125 263.347656 37.230469 265.820312 C 38.378906 268.289062 39.589844 270.730469 40.855469 273.144531 C 42.121094 275.554688 43.445312 277.9375 44.828125 280.289062 C 46.207031 282.636719 47.640625 284.953125 49.132812 287.234375 C 50.625 289.515625 52.167969 291.757812 53.765625 293.96875 C 56.425781 297.632812 59.265625 301.183594 62.164062 304.613281 C 65.421875 308.457031 68.84375 312.144531 72.429688 315.683594 C 76.015625 319.222656 79.75 322.597656 83.636719 325.804688 C 87.519531 329.011719 91.539062 332.039062 95.695312 334.886719 C 99.847656 337.738281 104.121094 340.398438 108.511719 342.871094 C 112.898438 345.339844 117.390625 347.613281 121.984375 349.683594 C 126.574219 351.757812 131.25 353.621094 136.003906 355.277344 C 140.761719 356.933594 145.585938 358.378906 150.46875 359.605469 C 155.355469 360.835938 160.285156 361.847656 165.261719 362.636719 C 174.445312 364.128906 183.695312 364.878906 193 364.886719 C 196.925781 364.882812 200.847656 364.746094 204.761719 364.472656 C 208.679688 364.199219 212.582031 363.792969 216.46875 363.253906 C 220.355469 362.714844 224.222656 362.042969 228.0625 361.238281 C 231.90625 360.429688 235.714844 359.496094 239.492188 358.429688 C 243.269531 357.363281 247.003906 356.167969 250.699219 354.84375 C 254.394531 353.519531 258.042969 352.070312 261.636719 350.496094 C 265.234375 348.925781 268.773438 347.230469 272.25 345.414062 C 275.730469 343.597656 279.144531 341.664062 282.492188 339.613281 C 285.839844 337.5625 289.109375 335.398438 292.308594 333.121094 C 295.507812 330.847656 298.625 328.464844 301.660156 325.972656 C 304.695312 323.484375 307.640625 320.894531 310.496094 318.203125 C 313.355469 315.511719 316.113281 312.722656 318.78125 309.84375 C 321.445312 306.960938 324.011719 303.992188 326.472656 300.933594 C 328.933594 297.878906 331.289062 294.738281 333.535156 291.519531 C 335.78125 288.300781 337.914062 285.011719 339.933594 281.644531 C 341.953125 278.277344 343.859375 274.847656 345.640625 271.351562 C 347.425781 267.855469 349.089844 264.304688 350.632812 260.691406 C 352.171875 257.082031 353.585938 253.425781 354.878906 249.71875 C 356.167969 246.007812 357.328125 242.261719 358.359375 238.476562 C 359.394531 234.6875 360.292969 230.871094 361.066406 227.023438 C 361.835938 223.171875 362.472656 219.300781 362.976562 215.410156 C 363.480469 211.515625 363.851562 207.609375 364.089844 203.691406 C 364.324219 199.773438 364.429688 195.851562 364.394531 191.929688 C 364.363281 188.003906 364.195312 184.082031 363.894531 180.167969 C 363.59375 176.257812 363.15625 172.359375 362.585938 168.472656 C 362.015625 164.589844 361.316406 160.730469 360.480469 156.894531 C 359.648438 153.058594 358.683594 149.257812 357.585938 145.488281 C 356.492188 141.71875 355.269531 137.992188 353.917969 134.304688 C 352.566406 130.621094 351.089844 126.984375 349.488281 123.402344 C 347.886719 119.816406 346.164062 116.292969 344.324219 112.828125 C 342.480469 109.359375 340.519531 105.960938 338.445312 102.632812 C 336.367188 99.300781 334.179688 96.042969 331.882812 92.863281 Z M 224.347656 114.628906 C 282.019531 169.222656 312.066406 242.625 325.195312 282.847656 C 323.421875 285.488281 321.570312 288.050781 319.636719 290.535156 C 303.023438 262.054688 284.429688 234.929688 263.855469 209.160156 C 243.28125 183.394531 220.945312 159.257812 196.84375 136.75 C 196.574219 136.5 196.28125 136.277344 195.96875 136.078125 C 195.65625 135.882812 195.328125 135.714844 194.984375 135.582031 C 194.640625 135.445312 194.285156 135.34375 193.921875 135.277344 C 193.558594 135.207031 193.191406 135.171875 192.824219 135.171875 C 192.453125 135.171875 192.085938 135.207031 191.722656 135.277344 C 191.359375 135.34375 191.007812 135.445312 190.664062 135.582031 C 190.320312 135.714844 189.992188 135.882812 189.675781 136.078125 C 189.363281 136.277344 189.074219 136.5 188.800781 136.75 C 164.710938 159.253906 142.382812 183.390625 121.816406 209.160156 C 101.253906 234.925781 82.667969 262.054688 66.070312 290.535156 C 65.179688 289.351562 64.234375 288.171875 63.347656 286.988281 C 62.460938 285.804688 61.453125 284.207031 60.507812 282.789062 C 73.757812 242.269531 103.804688 169.164062 161.0625 114.6875 C 161.367188 114.394531 161.640625 114.074219 161.878906 113.722656 C 162.117188 113.375 162.316406 113 162.472656 112.609375 C 162.632812 112.214844 162.746094 111.808594 162.816406 111.390625 C 162.886719 110.972656 162.914062 110.550781 162.894531 110.128906 C 162.875 109.703125 162.808594 109.289062 162.699219 108.878906 C 162.589844 108.46875 162.4375 108.074219 162.246094 107.699219 C 162.050781 107.320312 161.820312 106.96875 161.550781 106.640625 C 161.28125 106.316406 160.980469 106.019531 160.648438 105.757812 C 141.359375 90.316406 121.167969 76.160156 100.078125 63.289062 C 105.429688 59.5 110.988281 56.050781 116.757812 52.9375 C 129.707031 56.503906 142.28125 61.101562 154.480469 66.730469 C 166.675781 72.355469 178.332031 78.9375 189.453125 86.476562 C 189.941406 86.804688 190.46875 87.058594 191.03125 87.230469 C 191.597656 87.402344 192.175781 87.488281 192.765625 87.488281 C 193.355469 87.488281 193.933594 87.402344 194.496094 87.230469 C 195.0625 87.058594 195.585938 86.804688 196.078125 86.476562 C 207.242188 78.933594 218.949219 72.351562 231.195312 66.734375 C 243.441406 61.117188 256.066406 56.539062 269.066406 52.996094 C 274.796875 56.085938 280.320312 59.515625 285.625 63.289062 C 264.4375 76.128906 244.148438 90.265625 224.761719 105.699219 C 224.429688 105.960938 224.128906 106.253906 223.859375 106.582031 C 223.589844 106.910156 223.359375 107.261719 223.164062 107.640625 C 222.972656 108.015625 222.820312 108.410156 222.710938 108.820312 C 222.601562 109.230469 222.535156 109.644531 222.515625 110.070312 C 222.496094 110.492188 222.523438 110.914062 222.59375 111.332031 C 222.664062 111.75 222.777344 112.15625 222.9375 112.546875 C 223.09375 112.941406 223.292969 113.3125 223.53125 113.664062 C 223.769531 114.015625 224.042969 114.335938 224.347656 114.628906 Z M 218.433594 35.785156 C 230.355469 37.734375 241.910156 40.988281 253.09375 45.542969 C 231.738281 52.597656 211.648438 62.28125 192.824219 74.585938 C 174 62.277344 153.90625 52.597656 132.550781 45.542969 C 142.058594 41.640625 151.851562 38.695312 161.933594 36.703125 C 172.015625 34.714844 182.191406 33.71875 192.46875 33.714844 C 201.140625 33.710938 209.753906 34.402344 218.316406 35.785156 Z M 35.074219 167.980469 C 35.820312 163.300781 36.773438 158.660156 37.933594 154.0625 C 39.09375 149.464844 40.457031 144.929688 42.027344 140.457031 C 43.59375 135.984375 45.359375 131.589844 47.320312 127.273438 C 49.28125 122.957031 51.433594 118.738281 53.777344 114.617188 C 56.117188 110.492188 58.636719 106.484375 61.339844 102.585938 C 64.039062 98.691406 66.910156 94.921875 69.949219 91.285156 C 72.988281 87.644531 76.183594 84.152344 79.535156 80.800781 C 82.886719 77.449219 86.382812 74.253906 90.023438 71.214844 C 110.242188 83.140625 129.640625 96.269531 148.226562 110.605469 C 96.175781 162.125 66.957031 227.78125 52.40625 269.359375 C 50.316406 265.523438 48.386719 261.609375 46.621094 257.613281 C 44.855469 253.617188 43.257812 249.554688 41.828125 245.425781 C 40.398438 241.296875 39.144531 237.117188 38.058594 232.886719 C 36.976562 228.652344 36.066406 224.382812 35.335938 220.078125 C 34.605469 215.769531 34.054688 211.441406 33.679688 207.085938 C 33.308594 202.734375 33.117188 198.375 33.105469 194.003906 C 33.09375 189.636719 33.261719 185.273438 33.609375 180.921875 C 33.957031 176.566406 34.484375 172.234375 35.191406 167.921875 Z M 286.277344 322.890625 C 284.304688 324.316406 282.296875 325.695312 280.257812 327.027344 C 278.222656 328.363281 276.152344 329.648438 274.058594 330.886719 C 271.960938 332.125 269.835938 333.316406 267.6875 334.457031 C 265.535156 335.601562 263.359375 336.691406 261.15625 337.734375 C 258.957031 338.777344 256.734375 339.769531 254.488281 340.710938 C 252.242188 341.648438 249.972656 342.539062 247.6875 343.375 C 245.398438 344.210938 243.09375 344.996094 240.773438 345.726562 C 238.449219 346.460938 236.109375 347.136719 233.757812 347.761719 C 231.402344 348.386719 229.035156 348.957031 226.65625 349.472656 C 224.277344 349.988281 221.886719 350.449219 219.484375 350.855469 C 217.082031 351.261719 214.675781 351.613281 212.257812 351.910156 C 209.839844 352.207031 207.417969 352.449219 204.988281 352.636719 C 202.558594 352.820312 200.128906 352.949219 197.695312 353.027344 C 195.261719 353.101562 192.828125 353.117188 190.390625 353.082031 C 187.957031 353.046875 185.523438 352.953125 183.09375 352.804688 C 180.660156 352.65625 178.234375 352.453125 175.8125 352.195312 C 173.394531 351.933594 170.976562 351.621094 168.570312 351.25 C 166.164062 350.878906 163.765625 350.457031 161.378906 349.976562 C 158.992188 349.496094 156.617188 348.964844 154.253906 348.375 C 151.890625 347.789062 149.539062 347.148438 147.207031 346.449219 C 144.871094 345.753906 142.554688 345.007812 140.257812 344.207031 C 137.957031 343.40625 135.675781 342.550781 133.414062 341.644531 C 131.15625 340.738281 128.917969 339.78125 126.699219 338.773438 C 124.484375 337.765625 122.289062 336.707031 120.121094 335.601562 C 117.953125 334.492188 115.8125 333.332031 113.695312 332.128906 C 111.582031 330.921875 109.492188 329.667969 107.433594 328.363281 C 105.378906 327.0625 103.351562 325.714844 101.351562 324.320312 C 99.355469 322.925781 97.394531 321.484375 95.460938 320 C 93.53125 318.515625 91.636719 316.988281 89.777344 315.417969 C 87.914062 313.847656 86.089844 312.234375 84.304688 310.578125 C 82.519531 308.925781 80.769531 307.230469 79.058594 305.496094 C 77.351562 303.761719 75.683594 301.988281 74.054688 300.175781 C 90.078125 272.234375 108.039062 245.597656 127.941406 220.265625 C 147.839844 194.9375 169.46875 171.179688 192.824219 148.996094 C 216.179688 171.1875 237.808594 194.953125 257.710938 220.296875 C 277.609375 245.636719 295.570312 272.28125 311.59375 300.238281 C 303.957031 308.683594 295.515625 316.234375 286.277344 322.890625 Z M 350.453125 218.90625 C 349.023438 227.792969 346.863281 236.492188 343.960938 245.011719 C 341.0625 253.53125 337.46875 261.746094 333.183594 269.65625 C 318.691406 228.253906 289.472656 162.421875 237.363281 110.785156 C 255.957031 96.363281 275.378906 83.152344 295.621094 71.15625 C 305.695312 79.664062 314.589844 89.265625 322.300781 99.960938 C 325.371094 104.195312 328.230469 108.570312 330.871094 113.089844 C 333.511719 117.605469 335.921875 122.242188 338.105469 126.996094 C 340.289062 131.753906 342.230469 136.605469 343.933594 141.554688 C 345.632812 146.5 347.085938 151.523438 348.292969 156.613281 C 349.496094 161.707031 350.449219 166.84375 351.144531 172.03125 C 351.84375 177.214844 352.28125 182.425781 352.460938 187.652344 C 352.644531 192.882812 352.566406 198.109375 352.230469 203.332031 C 351.894531 208.550781 351.304688 213.746094 350.453125 218.90625 Z M 350.453125 218.90625 "/>
</g>
</svg>
