<svg xmlns="http://www.w3.org/2000/svg" width="500" height="500" viewBox="0 0 375 375" xmlns:v="https://vecta.io/nano"><path d="M356.31 219.855l-1.492 7.988-1.883 7.906-2.27 7.805-2.652 7.688-3.023 7.543-3.39 7.387-3.746 7.215-4.098 7.02-4.437 6.81-4.766 6.586-5.086 6.344-5.387 6.086-5.68 5.813-5.96 5.527-6.223 5.23-6.473 4.918-6.707 4.594-6.922 4.258-7.125 3.914-7.305 3.563-7.473 3.195-7.62 2.828-7.75 2.45-7.863 2.066-7.953 1.68-8.027 1.285-8.078.89-8.113.492-8.13.098-8.12-.305-8.098-.703-8.055-1.102-7.988-1.492-7.9-1.883-7.805-2.27-7.684-2.648-7.547-3.023-7.387-3.387-7.21-3.75-7.023-4.098-6.81-4.437-6.586-4.766-6.344-5.082-6.086-5.387-5.812-5.68-5.527-5.96-5.23-6.223-4.918-6.47-4.594-6.707-4.262-6.922-3.914-7.125-3.562-7.305-3.2-7.473-2.828-7.62-2.45-7.75-2.066-7.863-1.68-7.953-1.285-8.023-.89-8.082-.496-8.113-.094-8.13.305-8.12.7-8.098 1.102-8.055 1.492-7.988 1.88-7.9 2.27-7.805 2.648-7.684 3.023-7.547 3.387-7.387 3.75-7.215 4.098-7.02L56.3 99.66l4.766-6.582 5.082-6.344 5.387-6.086 5.68-5.816 5.96-5.527 6.223-5.23 6.47-4.922 6.707-4.594 6.922-4.262 7.12-3.914 7.31-3.562 7.473-3.2 7.62-2.828 7.75-2.45 7.86-2.066 7.953-1.68 8.027-1.29 8.078-.89 8.113-.496 8.13-.094 8.12.3 8.098.703 8.055 1.098 8.004 1.465 7.926 1.86 7.82 2.246 7.703 2.63 7.563 3.008 7.402 3.375 7.23 3.734 7.035 4.1 6.828 4.43 6.602 4.762 6.355 5.078 6.098 5.39 5.828 5.68 5.54 5.965 5.234 6.227 4.926 6.48 4.602 6.715 4.262 6.93 3.914 7.137 3.56 7.316 3.195 7.484 2.82 7.633 2.44 7.766 2.055 7.875 1.668 7.965 1.27 8.04.87 8.1.473 8.125.074 8.137-.332 8.133-.73 8.102-1.13 8.063zm0 0" fill="rgb(98.039246%,93.728638%,87.059021%)"/><path d="M303.902 316.266l-5.758 4.97-5.98 4.7-6.19 4.422-6.387 4.133-6.57 3.832-6.738 3.527-6.895 3.215-7.03 2.895-7.16 2.57-7.27 2.238-7.367 1.902-7.445 1.56-7.508 1.22-7.555.87-7.6.523-7.605.176a164.39 164.39 0 0 1-7.602-.176l-7.6-.523-7.56-.87-7.508-1.22-7.445-1.56-7.363-1.902-7.27-2.238-7.16-2.57-7.035-2.895-6.895-3.215-6.738-3.527-6.57-3.832-6.387-4.133-6.187-4.422-5.98-4.7-5.762-4.97 4.555-4.555 1.898-1.73 2.043-1.56 2.168-1.375 2.28-1.184 2.375-.98 2.45-.773 2.508-.555 2.547-.336 2.566-.113 2.566.11 2.547.336 2.508.55 2.453.766 2.375.98 2.28 1.18 2.172 1.37c7.402 4.938 15.25 9.023 23.54 12.266a122.97 122.97 0 0 0 25.613 6.957c6.477 1.12 13.004 1.73 19.578 1.836a123.82 123.82 0 0 0 18.313-1.312 123.92 123.92 0 0 0 17.918-4.004c5.87-1.78 11.582-3.984 17.13-6.61s10.867-5.652 15.96-9.074c.703-.473 1.426-.914 2.168-1.324s1.504-.79 2.277-1.137 1.563-.656 2.363-.934a30.7 30.7 0 0 1 2.438-.73c.82-.207 1.648-.38 2.488-.516s1.68-.238 2.523-.3 1.69-.094 2.543-.082a28.92 28.92 0 0 1 2.535.133c.848.082 1.684.2 2.52.352s1.66.344 2.477.57 1.625.484 2.422.777 1.578.62 2.344.984a27.97 27.97 0 0 1 2.25 1.18 29.32 29.32 0 0 1 2.145 1.371 30.7 30.7 0 0 1 2.016 1.551 29.91 29.91 0 0 1 1.875 1.715zm0 0" fill="rgb(100%,96.859741%,94.119263%)"/><path d="M59.86 289.53c4.574-14.78 10.1-29.203 16.547-43.266a355.28 355.28 0 0 1 22.023-40.75 355.45 355.45 0 0 1 27.129-37.547 356.38 356.38 0 0 1 31.777-33.703c-4.32-3.43 20.88-19.223 16.383-22.652-17.035-12.836-57.79-41.285-57.79-41.285a250.44 250.44 0 0 1 39.934 14.246 250.52 250.52 0 0 1 36.961 20.77 250.52 250.52 0 0 1 36.961-20.77 250.4 250.4 0 0 1 39.93-14.246s-33.594 29.988-50.273 42.47c-4.496 3.37 13.31 17.742 8.988 21.176a354.81 354.81 0 0 1 31.684 33.648 355.76 355.76 0 0 1 27.047 37.477c8.2 13.078 15.52 26.637 21.957 40.668s11.934 28.426 16.492 43.172l-13.305 16.86c-18.93-34.187-52.94-79.555-115.398-138.172a6.1 6.1 0 0 0-.887-.695c-.316-.203-.648-.375-1-.512a6.01 6.01 0 0 0-1.078-.32c-.367-.07-.742-.105-1.117-.105a5.99 5.99 0 0 0-1.121.105c-.367.074-.727.18-1.078.32a5.75 5.75 0 0 0-1 .512c-.316.203-.61.438-.883.695-63.11 59.148-97.004 105.227-115.93 139.234zm0 0" fill="rgb(93.728638%,84.709167%,74.508667%)"/><path d="M53.94 283.617c13.547-42.293 44.246-117.293 103.395-173.012a570.8 570.8 0 0 0-67.785-46.668l26.38-17.27c13.715 3.62 27.023 8.37 39.934 14.246a250.52 250.52 0 0 1 36.961 20.77 250.52 250.52 0 0 1 36.961-20.77 250.78 250.78 0 0 1 39.93-14.246l25.555 17.746a570.75 570.75 0 0 0-66.957 46.191c59.148 55.777 89.492 130.13 103.094 172.715l-13.187 16.563c-16.734-29.535-35.61-57.63-56.63-84.28a666.51 666.51 0 0 0-68.766-74.711 665.68 665.68 0 0 0-69.113 75.191 665.89 665.89 0 0 0-56.812 84.863zm0 0" fill="rgb(44.709778%,79.219055%,68.629456%)"/><path d="M192.352 329.457c-.4 0-.773-.04-1.156-.113s-.75-.2-1.1-.34-.7-.328-1.023-.547-.62-.46-.895-.734-.52-.574-.734-.895-.398-.664-.547-1.023a5.77 5.77 0 0 1-.336-1.11 5.75 5.75 0 0 1-.117-1.156V311.7a5.71 5.71 0 0 1 .117-1.152c.074-.383.188-.754.336-1.1s.328-.7.547-1.023.46-.62.734-.898.574-.52.895-.734.664-.398 1.023-.547a5.77 5.77 0 0 1 1.11-.336 6.04 6.04 0 0 1 1.156-.113 6.07 6.07 0 0 1 1.152.113 5.77 5.77 0 0 1 1.109.336c.36.148.7.332 1.023.547s.62.46.895.734a6.02 6.02 0 0 1 1.285 1.921 6 6 0 0 1 .336 1.11c.078.383.113.766.113 1.152v11.828c0 .4-.04.773-.113 1.156a5.66 5.66 0 0 1-.336 1.11c-.15.36-.332.7-.547 1.023a5.99 5.99 0 0 1-.738.895c-.273.273-.57.52-.895.734a6.13 6.13 0 0 1-1.023.547 6.07 6.07 0 0 1-1.109.34 6.03 6.03 0 0 1-1.152.113zm32.945-4.14a5.9 5.9 0 0 1-1.969-.273 5.96 5.96 0 0 1-1.77-.906 6.01 6.01 0 0 1-1.367-1.445 5.82 5.82 0 0 1-.809-1.812l-2.898-11.535a6.01 6.01 0 0 1-.172-1.18c-.016-.398.004-.797.066-1.2a6.19 6.19 0 0 1 .297-1.156 6.07 6.07 0 0 1 1.23-2.031 5.98 5.98 0 0 1 .891-.801 6.13 6.13 0 0 1 1.023-.605 6.04 6.04 0 0 1 1.13-.398 5.77 5.77 0 0 1 1.18-.168 5.78 5.78 0 0 1 1.191.066 5.94 5.94 0 0 1 1.16.293c.375.137.734.3 1.074.516a6.38 6.38 0 0 1 .957.719 6.27 6.27 0 0 1 .797.887c.237.32.438.664.605 1.027a6.12 6.12 0 0 1 .398 1.125l2.898 11.477a5.96 5.96 0 0 1 .18 1.148 5.77 5.77 0 0 1-.047 1.16 6.18 6.18 0 0 1-.273 1.129c-.13.367-.293.72-.492 1.055a5.76 5.76 0 0 1-.684.938c-.262.3-.547.55-.855.785s-.645.438-.996.605a5.76 5.76 0 0 1-1.1.395 5.78 5.78 0 0 1-1.656.18zm-96.293-13.96c-.523 0-1.035-.066-1.54-.203a5.92 5.92 0 0 1-1.434-.598c-.453-.262-.863-.578-1.23-.95a5.81 5.81 0 0 1-.937-1.238 5.92 5.92 0 0 1-.586-1.437 5.9 5.9 0 0 1-.187-1.54c.003-.52.074-1.035.215-1.54a5.88 5.88 0 0 1 .61-1.426l5.918-10.176a5.68 5.68 0 0 1 .621-1.062 5.78 5.78 0 0 1 .832-.914c.31-.274.64-.516 1-.723s.738-.37 1.133-.496a6.09 6.09 0 0 1 1.207-.254c.414-.04.824-.04 1.234.008s.816.13 1.207.258a6.08 6.08 0 0 1 1.125.508 5.89 5.89 0 0 1 1 .727c.305.28.578.586.824.922a5.93 5.93 0 0 1 .613 1.07 5.9 5.9 0 0 1 .379 1.176c.086.402.13.813.13 1.227a6.14 6.14 0 0 1-.133 1.227 5.91 5.91 0 0 1-.383 1.176 5.95 5.95 0 0 1-.617 1.07l-5.905 10.17a5.83 5.83 0 0 1-.926 1.234 5.99 5.99 0 0 1-2.633 1.563 5.87 5.87 0 0 1-1.527.22zm127.168 1.656c-.523 0-1.04-.07-1.547-.207a5.79 5.79 0 0 1-1.434-.605 5.85 5.85 0 0 1-1.23-.957c-.367-.375-.68-.8-.937-1.246l-5.914-10.293c-.2-.336-.352-.7-.477-1.06a6.1 6.1 0 0 1-.262-1.133 5.73 5.73 0 0 1-.035-1.164 5.69 5.69 0 0 1 .191-1.148 7.52 7.52 0 0 1 .4-1.1 6.12 6.12 0 0 1 .617-.984 5.85 5.85 0 0 1 .797-.848 5.81 5.81 0 0 1 .949-.676 5.87 5.87 0 0 1 1.059-.48 6.27 6.27 0 0 1 1.133-.262c.387-.047.773-.06 1.164-.035a6.03 6.03 0 0 1 1.148.191 5.73 5.73 0 0 1 1.086.414c.348.176.68.38.988.617a5.63 5.63 0 0 1 .848.797 5.95 5.95 0 0 1 .676.945l5.914 10.293a5.62 5.62 0 0 1 .332.691 6.15 6.15 0 0 1 .242.73 5.85 5.85 0 0 1 .14.758c.03.258.047.508.043.766s-.02.512-.055.766a5.51 5.51 0 0 1-.156.754 5.69 5.69 0 0 1-.25.727 6.27 6.27 0 0 1-.344.688 5.86 5.86 0 0 1-.43.637 6.01 6.01 0 0 1-.512.578 5.91 5.91 0 0 1-.578.504 5.88 5.88 0 0 1-.641.426 5.91 5.91 0 0 1-.687.34c-.238.098-.48.18-.73.246a6.33 6.33 0 0 1-.754.152 6.25 6.25 0 0 1-.766.051zm-96.648 11.418c-.53.07-1.066.07-1.598 0a5.9 5.9 0 0 1-1.074-.426 6.14 6.14 0 0 1-.973-.62 5.98 5.98 0 0 1-.832-.801 6.09 6.09 0 0 1-.664-.949 5.79 5.79 0 0 1-.461-1.059c-.12-.367-.203-.742-.25-1.13a5.93 5.93 0 0 1-.027-1.152c.028-.382.098-.766.2-1.14l3.137-11.355a5.85 5.85 0 0 1 .418-1.082 6.23 6.23 0 0 1 .625-.98 5.65 5.65 0 0 1 .805-.84 5.97 5.97 0 0 1 .953-.668c.34-.2.7-.348 1.063-.47s.75-.203 1.133-.25.777-.055 1.164-.027a6.01 6.01 0 0 1 1.145.203c.375.105.734.246 1.082.422s.676.383.98.625a5.82 5.82 0 0 1 .84.801 5.97 5.97 0 0 1 .668.953c.188.34.344.695.465 1.066a5.87 5.87 0 0 1 .254 1.133 5.73 5.73 0 0 1 .023 1.164 6.01 6.01 0 0 1-.203 1.145l-3.195 11.355a5.78 5.78 0 0 1-.848 1.656c-.37.508-.812.945-1.32 1.313a5.83 5.83 0 0 1-1.668.836 5.87 5.87 0 0 1-1.84.277zm172.36-231.568l-4.625-6.1-4.887-5.898-5.148-5.672-5.395-5.437-5.637-5.2-5.86-4.934-6.074-4.668-6.273-4.395-6.47-4.105-6.64-3.816-6.8-3.512-6.957-3.207-7.094-2.895-7.215-2.574-7.324-2.25-7.414-1.918-7.496-1.586-7.555-1.25-7.6-.914-7.637-.57-7.656-.227a172.65 172.65 0 0 0-7.66.109l-7.648.457-7.617.793-7.578 1.137-7.516 1.473-7.445 1.805-7.355 2.137-7.254 2.465-7.137 2.785-7.008 3.098-6.86 3.4A174.44 174.44 0 0 0 92.27 54.355l-6.387 4.852a171.22 171.22 0 0 0-6.27 5.242 167.89 167.89 0 0 0-6.016 5.535 167.87 167.87 0 0 0-5.742 5.813l-5.46 6.082-5.164 6.336-4.855 6.574a165.77 165.77 0 0 0-4.539 6.797l-4.2 7.004-3.87 7.2-3.523 7.375-3.168 7.535-2.805 7.676-2.437 7.8a172.75 172.75 0 0 0-2.062 7.906 179.5 179.5 0 0 0-1.684 8l-1.297 8.066a172.24 172.24 0 0 0-.918 8.125 172.44 172.44 0 0 0-.523 8.156l-.14 8.172a172.79 172.79 0 0 0 .254 8.168 172.49 172.49 0 0 0 .641 8.148l1.027 8.105 1.414 8.05a172.83 172.83 0 0 0 1.793 7.973l2.176 7.88 2.543 7.77 2.914 7.637 3.273 7.488 3.625 7.324 3.973 7.145 4.305 6.945 4.633 6.734c2.66 3.664 5.5 7.215 8.398 10.645 3.258 3.844 6.68 7.53 10.266 11.07a169.75 169.75 0 0 0 11.207 10.121 168.31 168.31 0 0 0 12.059 9.082 169.58 169.58 0 0 0 12.816 7.984 169.13 169.13 0 0 0 13.473 6.813c4.593 2.07 9.266 3.938 14.02 5.594a169.35 169.35 0 0 0 14.465 4.328c4.883 1.226 9.816 2.242 14.793 3.03a173.62 173.62 0 0 0 27.738 2.25 171.19 171.19 0 0 0 11.762-.414 172.73 172.73 0 0 0 11.707-1.219 171.18 171.18 0 0 0 11.594-2.016c3.844-.8 7.652-1.742 11.43-2.8a170.64 170.64 0 0 0 11.207-3.586 171.18 171.18 0 0 0 10.938-4.348 168.15 168.15 0 0 0 10.613-5.082 171.49 171.49 0 0 0 10.242-5.801 170.51 170.51 0 0 0 9.816-6.492 168.96 168.96 0 0 0 9.352-7.148 170.21 170.21 0 0 0 8.836-7.77 171 171 0 0 0 8.285-8.36 172.62 172.62 0 0 0 7.69-8.9 169.17 169.17 0 0 0 7.063-9.414 169.31 169.31 0 0 0 6.398-9.875 170.49 170.49 0 0 0 5.707-10.293 171.73 171.73 0 0 0 4.992-10.66c1.54-3.6 2.953-7.266 4.246-10.973s2.45-7.457 3.48-11.242a172.2 172.2 0 0 0 2.707-11.453 172.05 172.05 0 0 0 1.91-11.613 173.27 173.27 0 0 0 1.113-11.719c.234-3.918.34-7.84.305-11.762s-.2-7.848-.5-11.762-.738-7.8-1.3-11.695-1.27-7.742-2.105-11.578a170.13 170.13 0 0 0-2.895-11.406 170.73 170.73 0 0 0-3.668-11.184c-1.352-3.684-2.828-7.32-4.43-10.902s-3.324-7.1-5.164-10.574a171.11 171.11 0 0 0-5.879-10.195c-2.078-3.332-4.266-6.6-6.562-9.77zM224.348 114.63c57.672 54.594 87.72 127.996 100.848 168.22-1.773 2.64-3.625 5.203-5.56 7.688a676.86 676.86 0 0 0-55.781-81.375 676.63 676.63 0 0 0-67.012-72.41 6.12 6.12 0 0 0-.875-.672 5.81 5.81 0 0 0-.984-.496c-.344-.137-.7-.238-1.062-.305a6.04 6.04 0 0 0-1.098-.105c-.368 0-.738.035-1.102.105s-.715.168-1.06.305a6.21 6.21 0 0 0-.988.496 5.89 5.89 0 0 0-.875.672c-24.1 22.504-46.418 46.64-66.984 72.4a675.05 675.05 0 0 0-55.746 81.375l-2.723-3.547c-.887-1.184-1.895-2.78-2.84-4.2 13.25-40.52 43.297-113.625 100.555-168.102a6.03 6.03 0 0 0 .816-.965 5.75 5.75 0 0 0 .594-1.113 5.81 5.81 0 0 0 .344-1.22 5.94 5.94 0 0 0 .078-1.262 5.87 5.87 0 0 0-.195-1.25c-.1-.4-.262-.805-.453-1.18s-.426-.73-.695-1.06-.57-.62-.902-.883a581.82 581.82 0 0 0-60.57-42.469 161.81 161.81 0 0 1 16.68-10.352A245.44 245.44 0 0 1 154.48 66.73c12.195 5.625 23.852 12.207 34.973 19.746.488.328 1.016.582 1.578.754a5.94 5.94 0 0 0 1.734.258c.6 0 1.168-.086 1.73-.258a5.95 5.95 0 0 0 1.582-.754c11.164-7.543 22.87-14.125 35.117-19.742a245.54 245.54 0 0 1 37.871-13.738 159.47 159.47 0 0 1 16.56 10.293c-21.187 12.84-41.477 26.977-60.863 42.4a5.84 5.84 0 0 0-.902.883 5.94 5.94 0 0 0-.695 1.06c-.195.38-.344.77-.453 1.18a5.87 5.87 0 0 0-.195 1.25 5.94 5.94 0 0 0 .078 1.262c.07.418.184.824.344 1.215a5.78 5.78 0 0 0 .594 1.117 6.03 6.03 0 0 0 .816.965zm-5.914-78.844a160.1 160.1 0 0 1 34.66 9.758c-21.355 7.055-41.445 16.738-60.27 29.043a256.95 256.95 0 0 0-60.273-29.043 157.71 157.71 0 0 1 29.383-8.84 157.46 157.46 0 0 1 30.535-2.988c8.672-.004 17.285.688 25.848 2.07zM35.074 167.98a159.51 159.51 0 0 1 2.859-13.918c1.16-4.598 2.523-9.133 4.094-13.605a158.62 158.62 0 0 1 5.293-13.184 156.66 156.66 0 0 1 6.457-12.656c2.34-4.125 4.86-8.133 7.563-12.03a157.91 157.91 0 0 1 8.61-11.3 158.11 158.11 0 0 1 9.586-10.484 158.3 158.3 0 0 1 10.488-9.586c20.22 11.926 39.617 25.055 58.203 39.4-52.05 51.52-81.27 117.176-95.82 158.754-2.1-3.836-4.02-7.75-5.785-11.746a158.99 158.99 0 0 1-4.793-12.187 159.5 159.5 0 0 1-3.77-12.539c-1.082-4.234-1.992-8.504-2.723-12.8a159.63 159.63 0 0 1-1.656-12.992 156.92 156.92 0 0 1-.574-13.082c-.012-4.372.156-8.73.504-13.082a158.02 158.02 0 0 1 1.582-13zm251.203 154.9a154.82 154.82 0 0 1-6.02 4.137 156.12 156.12 0 0 1-6.199 3.859 162.42 162.42 0 0 1-6.37 3.57c-2.147 1.14-4.328 2.234-6.53 3.277a158.93 158.93 0 0 1-6.668 2.977 163.38 163.38 0 0 1-6.8 2.664c-2.284.836-4.594 1.62-6.914 2.352a157.9 157.9 0 0 1-7.016 2.035 159.08 159.08 0 0 1-7.102 1.711 159.03 159.03 0 0 1-7.172 1.383 161.63 161.63 0 0 1-7.227 1.055 161.76 161.76 0 0 1-7.27.727 168.51 168.51 0 0 1-7.293.391c-2.434.074-4.867.1-7.305.055a156.83 156.83 0 0 1-7.297-.277c-2.434-.148-4.86-.352-7.28-.6s-4.836-.574-7.242-.945-4.805-.793-7.2-1.273a158.95 158.95 0 0 1-7.125-1.602c-2.363-.586-4.715-1.227-7.047-1.926a158.19 158.19 0 0 1-6.949-2.242c-2.3-.8-4.582-1.656-6.844-2.562s-4.496-1.863-6.715-2.87a166.19 166.19 0 0 1-6.578-3.172 166.81 166.81 0 0 1-6.426-3.473 157.99 157.99 0 0 1-6.262-3.766 164.11 164.11 0 0 1-6.082-4.043c-1.996-1.395-3.957-2.836-5.9-4.32a157.58 157.58 0 0 1-5.684-4.582c-1.86-1.57-3.687-3.184-5.473-4.84s-3.535-3.348-5.246-5.082-3.375-3.508-5.004-5.32c16.023-27.94 33.984-54.578 53.887-79.9a663.45 663.45 0 0 1 64.883-71.27 663.47 663.47 0 0 1 64.887 71.301 663.48 663.48 0 0 1 53.883 79.94c-7.637 8.445-16.078 15.996-25.316 22.652zm64.176-103.984c-1.43 8.887-3.6 17.586-6.492 26.105a159.5 159.5 0 0 1-10.777 24.645c-14.492-41.402-43.7-107.234-95.82-158.87a564.96 564.96 0 0 1 58.258-39.63 160.16 160.16 0 0 1 26.68 28.805 158.99 158.99 0 0 1 8.57 13.129 159.01 159.01 0 0 1 7.234 13.906 158.4 158.4 0 0 1 5.828 14.56 159.8 159.8 0 0 1 4.359 15.059 158.79 158.79 0 0 1 2.852 15.418c.7 5.184 1.137 10.395 1.316 15.62s.105 10.457-.23 15.68a157.66 157.66 0 0 1-1.777 15.574zm0 0" fill="rgb(55.288696%,42.349243%,62.348938%)"/></svg>